solid "low"
  facet normal 0.165308400989 0.183746621013 -0.968973815441
    outer loop
      vertex 1.87881290913 -3.53213620186 -11.3913011551
      vertex -2.68665337563 4.77704572678 -10.5945053101
      vertex 6.36734676361 2.7538228035 -9.43354320526
    endloop
  endfacet
  facet normal 0.953924953938 -0.133188501 0.26886421442
    outer loop
      vertex 9.21528530121 0.456301867962 7.27626371384
      vertex 11.3764944077 -2.43999814987 -1.82641816139
      vertex 11.5589733124 3.62537193298 0.530778050423
    endloop
  endfacet
  facet normal 0.852677643299 0.0627034455538 -0.518660843372
    outer loop
      vertex 6.36734676361 2.7538228035 -9.43354320526
      vertex 11.3764944077 -2.43999814987 -1.82641816139
      vertex 7.53033542633 -4.44746589661 -8.39218997955
    endloop
  endfacet
  facet normal 0.390155464411 0.889807462692 -0.236688345671
    outer loop
      vertex 5.21260213852 8.31420230865 -6.73750782013
      vertex 1.62574541569 11.6425027847 -0.137627869844
      vertex 7.70995330811 9.31262397766 1.13257825375
    endloop
  endfacet
  facet normal 0.392535716295 0.830794990063 0.394582509995
    outer loop
      vertex 4.90909767151 5.62461614609 9.26673603058
      vertex 1.62574541569 11.6425027847 -0.137627869844
      vertex -0.316654413939 8.31663513184 8.79732322693
    endloop
  endfacet
  facet normal 0.113898321986 -0.972138404846 0.204875826836
    outer loop
      vertex 0.749573409557 -10.850019455 -4.22511720657
      vertex 7.31117582321 -9.48891830444 -1.41452145576
      vertex 7.48088121414 -8.2580537796 4.33159923553
    endloop
  endfacet
  facet normal 0.193396538496 -0.970800280571 0.141931667924
    outer loop
      vertex -2.71765851974 -10.0865097046 5.72168254852
      vertex 0.749573409557 -10.850019455 -4.22511720657
      vertex 7.48088121414 -8.2580537796 4.33159923553
    endloop
  endfacet
  facet normal 0.214973047376 -0.884881794453 0.413244277239
    outer loop
      vertex 7.48088121414 -8.2580537796 4.33159923553
      vertex 3.77386689186 -6.80790042877 9.3652381897
      vertex -2.71765851974 -10.0865097046 5.72168254852
    endloop
  endfacet
  facet normal -0.176421687007 -0.554491877556 0.813273727894
    outer loop
      vertex -2.71765851974 -10.0865097046 5.72168254852
      vertex 3.77386689186 -6.80790042877 9.3652381897
      vertex -0.282206863165 -2.49867033958 11.4234056473
    endloop
  endfacet
  facet normal 0.759485185146 0.452979981899 0.466895520687
    outer loop
      vertex 9.21528530121 0.456301867962 7.27626371384
      vertex 7.70995330811 9.31262397766 1.13257825375
      vertex 4.90909767151 5.62461614609 9.26673603058
    endloop
  endfacet
  facet normal 0.411946207285 -0.0468878336251 0.910001039505
    outer loop
      vertex 9.21528530121 0.456301867962 7.27626371384
      vertex -0.282206863165 -2.49867033958 11.4234056473
      vertex 3.77386689186 -6.80790042877 9.3652381897
    endloop
  endfacet
  facet normal 0.703678548336 -0.349154353142 0.618811547756
    outer loop
      vertex 3.77386689186 -6.80790042877 9.3652381897
      vertex 7.48088121414 -8.2580537796 4.33159923553
      vertex 9.21528530121 0.456301867962 7.27626371384
    endloop
  endfacet
  facet normal 0.0342962257564 0.235919937491 0.971167087555
    outer loop
      vertex 4.90909767151 5.62461614609 9.26673603058
      vertex -0.316654413939 8.31663513184 8.79732322693
      vertex -0.282206863165 -2.49867033958 11.4234056473
    endloop
  endfacet
  facet normal 0.404162764549 -0.0154784666374 0.914556086063
    outer loop
      vertex -0.282206863165 -2.49867033958 11.4234056473
      vertex 9.21528530121 0.456301867962 7.27626371384
      vertex 4.90909767151 5.62461614609 9.26673603058
    endloop
  endfacet
  facet normal 0.38454502821 -0.75393140316 -0.532646715641
    outer loop
      vertex 7.53033542633 -4.44746589661 -8.39218997955
      vertex 7.31117582321 -9.48891830444 -1.41452145576
      vertex 0.749573409557 -10.850019455 -4.22511720657
    endloop
  endfacet
  facet normal 0.244533330202 -0.697421491146 -0.673651754856
    outer loop
      vertex 7.53033542633 -4.44746589661 -8.39218997955
      vertex 0.749573409557 -10.850019455 -4.22511720657
      vertex 1.87881290913 -3.53213620186 -11.3913011551
    endloop
  endfacet
  facet normal 0.810546636581 -0.486518830061 -0.326057672501
    outer loop
      vertex 7.53033542633 -4.44746589661 -8.39218997955
      vertex 11.3764944077 -2.43999814987 -1.82641816139
      vertex 7.31117582321 -9.48891830444 -1.41452145576
    endloop
  endfacet
  facet normal 0.213579118252 0.461774975061 -0.860899448395
    outer loop
      vertex -2.68665337563 4.77704572678 -10.5945053101
      vertex 5.21260213852 8.31420230865 -6.73750782013
      vertex 6.36734676361 2.7538228035 -9.43354320526
    endloop
  endfacet
  facet normal 0.803711891174 0.386332005262 -0.452542603016
    outer loop
      vertex 6.36734676361 2.7538228035 -9.43354320526
      vertex 5.21260213852 8.31420230865 -6.73750782013
      vertex 11.5589733124 3.62537193298 0.530778050423
    endloop
  endfacet
  facet normal 0.461301296949 -0.053568162024 -0.885624945164
    outer loop
      vertex 1.87881290913 -3.53213620186 -11.3913011551
      vertex 6.36734676361 2.7538228035 -9.43354320526
      vertex 7.53033542633 -4.44746589661 -8.39218997955
    endloop
  endfacet
  facet normal 0.750892281532 0.457822859287 0.475982129574
    outer loop
      vertex 7.70995330811 9.31262397766 1.13257825375
      vertex 9.21528530121 0.456301867962 7.27626371384
      vertex 11.5589733124 3.62537193298 0.530778050423
    endloop
  endfacet
  facet normal 0.770270168781 0.554612755775 -0.314783364534
    outer loop
      vertex 7.70995330811 9.31262397766 1.13257825375
      vertex 11.5589733124 3.62537193298 0.530778050423
      vertex 5.21260213852 8.31420230865 -6.73750782013
    endloop
  endfacet
  facet normal 0.870446383953 0.155345663428 -0.467109024525
    outer loop
      vertex 6.36734676361 2.7538228035 -9.43354320526
      vertex 11.5589733124 3.62537193298 0.530778050423
      vertex 11.3764944077 -2.43999814987 -1.82641816139
    endloop
  endfacet
  facet normal 0.865481972694 -0.494453340769 0.0803546980023
    outer loop
      vertex 7.48088121414 -8.2580537796 4.33159923553
      vertex 7.31117582321 -9.48891830444 -1.41452145576
      vertex 11.3764944077 -2.43999814987 -1.82641816139
    endloop
  endfacet
  facet normal 0.908541619778 -0.284281224012 0.306163877249
    outer loop
      vertex 7.48088121414 -8.2580537796 4.33159923553
      vertex 11.3764944077 -2.43999814987 -1.82641816139
      vertex 9.21528530121 0.456301867962 7.27626371384
    endloop
  endfacet
  facet normal 0.229740202427 0.854215741158 0.466406404972
    outer loop
      vertex 1.62574541569 11.6425027847 -0.137627869844
      vertex 4.90909767151 5.62461614609 9.26673603058
      vertex 7.70995330811 9.31262397766 1.13257825375
    endloop
  endfacet
  facet normal -0.943570256233 0.05104688555 0.327214539051
    outer loop
      vertex -8.77127742767 -2.07929491997 7.81940460205
      vertex -10.4487104416 5.18109226227 1.84963154793
      vertex -11.0047206879 -4.55723142624 1.76551735401
    endloop
  endfacet
  facet normal -0.290334284306 -0.828831732273 -0.478271812201
    outer loop
      vertex -5.0690164566 -6.2167840004 -8.72221755981
      vertex 0.749573409557 -10.850019455 -4.22511720657
      vertex -7.06454515457 -9.61085224152 -1.6290075779
    endloop
  endfacet
  facet normal 0.00988897960633 0.894994020462 -0.445968478918
    outer loop
      vertex 1.62574541569 11.6425027847 -0.137627869844
      vertex 5.21260213852 8.31420230865 -6.73750782013
      vertex -5.12695884705 10.1091756821 -3.36452865601
    endloop
  endfacet
  facet normal -0.0597399882972 0.793626189232 -0.605465590954
    outer loop
      vertex -5.12695884705 10.1091756821 -3.36452865601
      vertex 5.21260213852 8.31420230865 -6.73750782013
      vertex -2.68665337563 4.77704572678 -10.5945053101
    endloop
  endfacet
  facet normal -0.258683562279 0.962296426296 0.0840739533305
    outer loop
      vertex -5.34439325333 9.26899623871 5.58301353455
      vertex 1.62574541569 11.6425027847 -0.137627869844
      vertex -5.12695884705 10.1091756821 -3.36452865601
    endloop
  endfacet
  facet normal -0.0400373861194 0.939242422581 0.340911477804
    outer loop
      vertex 1.62574541569 11.6425027847 -0.137627869844
      vertex -5.34439325333 9.26899623871 5.58301353455
      vertex -0.316654413939 8.31663513184 8.79732322693
    endloop
  endfacet
  facet normal -0.14878949523 -0.988577187061 0.0240178052336
    outer loop
      vertex -2.71765851974 -10.0865097046 5.72168254852
      vertex -7.06454515457 -9.61085224152 -1.6290075779
      vertex 0.749573409557 -10.850019455 -4.22511720657
    endloop
  endfacet
  facet normal -0.64857172966 0.759125828743 0.0555214472115
    outer loop
      vertex -5.12695884705 10.1091756821 -3.36452865601
      vertex -10.4487104416 5.18109226227 1.84963154793
      vertex -5.34439325333 9.26899623871 5.58301353455
    endloop
  endfacet
  facet normal -0.35060274601 0.59368366003 0.724304735661
    outer loop
      vertex -4.59014081955 3.32613396645 10.8192396164
      vertex -0.316654413939 8.31663513184 8.79732322693
      vertex -5.34439325333 9.26899623871 5.58301353455
    endloop
  endfacet
  facet normal -0.774290859699 0.285488069057 0.56477445364
    outer loop
      vertex -10.4487104416 5.18109226227 1.84963154793
      vertex -8.77127742767 -2.07929491997 7.81940460205
      vertex -4.59014081955 3.32613396645 10.8192396164
    endloop
  endfacet
  facet normal -0.727672100067 0.399147301912 0.55783033371
    outer loop
      vertex -10.4487104416 5.18109226227 1.84963154793
      vertex -4.59014081955 3.32613396645 10.8192396164
      vertex -5.34439325333 9.26899623871 5.58301353455
    endloop
  endfacet
  facet normal -0.362326353788 -0.482792764902 0.797264575958
    outer loop
      vertex -2.71765851974 -10.0865097046 5.72168254852
      vertex -0.282206863165 -2.49867033958 11.4234056473
      vertex -8.77127742767 -2.07929491997 7.81940460205
    endloop
  endfacet
  facet normal -0.633778452873 -0.605313658714 0.481581002474
    outer loop
      vertex -2.71765851974 -10.0865097046 5.72168254852
      vertex -8.77127742767 -2.07929491997 7.81940460205
      vertex -11.0047206879 -4.55723142624 1.76551735401
    endloop
  endfacet
  facet normal -0.627357661724 -0.707575678825 0.325206100941
    outer loop
      vertex -2.71765851974 -10.0865097046 5.72168254852
      vertex -11.0047206879 -4.55723142624 1.76551735401
      vertex -7.06454515457 -9.61085224152 -1.6290075779
    endloop
  endfacet
  facet normal 0.180503636599 0.232622727752 0.955669999123
    outer loop
      vertex -0.282206863165 -2.49867033958 11.4234056473
      vertex -0.316654413939 8.31663513184 8.79732322693
      vertex -4.59014081955 3.32613396645 10.8192396164
    endloop
  endfacet
  facet normal -0.391387522221 -0.196210309863 0.899064660072
    outer loop
      vertex -0.282206863165 -2.49867033958 11.4234056473
      vertex -4.59014081955 3.32613396645 10.8192396164
      vertex -8.77127742767 -2.07929491997 7.81940460205
    endloop
  endfacet
  facet normal -0.00438587600365 -0.699310183525 -0.714804887772
    outer loop
      vertex 0.749573409557 -10.850019455 -4.22511720657
      vertex -5.0690164566 -6.2167840004 -8.72221755981
      vertex 1.87881290913 -3.53213620186 -11.3913011551
    endloop
  endfacet
  facet normal -0.796910881996 -0.42619368434 -0.428126186132
    outer loop
      vertex -5.0690164566 -6.2167840004 -8.72221755981
      vertex -7.06454515457 -9.61085224152 -1.6290075779
      vertex -10.0407314301 0.576857745647 -6.23088026047
    endloop
  endfacet
  facet normal -0.635128617287 0.503526031971 -0.585724473
    outer loop
      vertex -10.0407314301 0.576857745647 -6.23088026047
      vertex -5.12695884705 10.1091756821 -3.36452865601
      vertex -2.68665337563 4.77704572678 -10.5945053101
    endloop
  endfacet
  facet normal -0.794893622398 0.509041666985 -0.330182909966
    outer loop
      vertex -10.0407314301 0.576857745647 -6.23088026047
      vertex -10.4487104416 5.18109226227 1.84963154793
      vertex -5.12695884705 10.1091756821 -3.36452865601
    endloop
  endfacet
  facet normal -0.32688832283 -0.089389257133 -0.940825998783
    outer loop
      vertex 1.87881290913 -3.53213620186 -11.3913011551
      vertex -5.0690164566 -6.2167840004 -8.72221755981
      vertex -2.68665337563 4.77704572678 -10.5945053101
    endloop
  endfacet
  facet normal -0.492260605097 -0.0413996763527 -0.869462788105
    outer loop
      vertex -5.0690164566 -6.2167840004 -8.72221755981
      vertex -10.0407314301 0.576857745647 -6.23088026047
      vertex -2.68665337563 4.77704572678 -10.5945053101
    endloop
  endfacet
  facet normal -0.994887650013 0.0575201101601 -0.0830057859421
    outer loop
      vertex -11.0047206879 -4.55723142624 1.76551735401
      vertex -10.4487104416 5.18109226227 1.84963154793
      vertex -10.0407314301 0.576857745647 -6.23088026047
    endloop
  endfacet
  facet normal -0.837223947048 -0.408705830574 -0.363339453936
    outer loop
      vertex -7.06454515457 -9.61085224152 -1.6290075779
      vertex -11.0047206879 -4.55723142624 1.76551735401
      vertex -10.0407314301 0.576857745647 -6.23088026047
    endloop
  endfacet
endsolid "low"
